<?xml version="1.0" standalone="no"?>
<!DOCTYPE svg PUBLIC "-//W3C//DTD SVG 20010904//EN"
 "http://www.w3.org/TR/2001/REC-SVG-20010904/DTD/svg10.dtd">
<svg version="1.0" xmlns="http://www.w3.org/2000/svg"
 width="700.000000pt" height="700.000000pt" viewBox="0 0 700.000000 700.000000"
 preserveAspectRatio="xMidYMid meet">
<metadata>
Created by potrace 1.14, written by Peter Selinger 2001-2017
</metadata>
<g transform="translate(0.000000,700.000000) scale(0.100000,-0.100000)"
fill="#000000" stroke="none">
<path d="M3382 6423 c-7 -3 -19 -18 -28 -34 -13 -27 -13 -37 6 -117 31 -126
23 -185 -70 -521 -20 -74 -25 -172 -13 -245 l6 -38 47 90 c60 117 97 164 212
268 51 46 115 108 142 137 64 69 146 186 146 208 0 41 -78 52 -114 16 l-22
-23 4 77 c4 74 4 76 -24 98 -21 17 -37 21 -59 17 -33 -7 -75 -48 -75 -74 0 -9
-11 9 -25 42 -37 92 -77 122 -133 99z"/>
<path d="M4203 6291 c-17 -11 -46 -41 -63 -68 -75 -111 -163 -182 -391 -316
-80 -47 -166 -103 -192 -124 -61 -51 -148 -151 -210 -243 -27 -41 -51 -77 -53
-79 -12 -14 -68 22 -141 91 -100 94 -164 128 -241 128 -108 0 -168 -60 -177
-179 -2 -40 -12 -73 -28 -98 -13 -21 -27 -44 -31 -51 -8 -14 -2 -12 117 42 32
14 68 26 81 26 30 0 57 -32 85 -100 49 -116 110 -184 205 -230 92 -43 165 -59
344 -75 158 -13 165 -15 270 -61 186 -81 227 -94 302 -94 92 0 172 30 228 85
39 39 42 47 42 94 0 36 -8 67 -26 102 -23 47 -28 50 -52 44 -135 -35 -247 -42
-362 -21 -188 34 -284 113 -240 196 14 26 58 38 180 50 128 13 196 31 261 71
59 37 72 58 64 102 -7 33 -6 33 64 61 86 34 151 79 151 106 0 26 -54 54 -89
45 -17 -4 -5 8 36 35 69 46 84 71 57 101 -21 23 -61 24 -112 4 l-37 -15 30 22
c55 41 134 120 141 140 15 50 -76 80 -131 44 -14 -9 -25 -15 -25 -13 0 2 13
28 30 58 46 83 39 126 -21 135 -23 3 -44 -1 -66 -15z"/>
<path d="M3112 4712 c-165 -279 -164 -277 -131 -269 13 3 50 11 82 18 48 10
61 17 69 38 19 51 129 443 125 447 -2 3 -68 -103 -145 -234z"/>
<path d="M3604 4925 c9 -36 105 -379 122 -436 l16 -57 59 35 c33 20 61 39 64
43 5 7 -99 180 -204 340 -34 52 -60 86 -57 75z"/>
<path d="M3417 4875 c-13 -132 -41 -625 -35 -631 4 -3 36 12 73 33 l66 38 -5
61 c-6 55 -82 524 -90 549 -1 5 -5 -17 -9 -50z"/>
<path d="M2332 3956 c-41 -8 -75 -16 -77 -18 -2 -2 8 -23 23 -46 25 -39 29
-41 62 -35 68 14 332 7 425 -11 236 -45 429 -133 588 -268 31 -27 57 -45 57
-40 0 16 -194 197 -259 241 -94 64 -237 129 -348 157 -123 32 -355 42 -471 20z"/>
<path d="M4278 3956 c-171 -31 -342 -105 -480 -209 -71 -53 -238 -220 -238
-238 0 -4 -13 -17 -30 -29 l-30 -21 -32 22 c-18 13 -36 28 -40 34 -4 5 -11 10
-15 10 -4 1 -44 25 -88 54 -351 233 -760 295 -1168 176 -90 -26 -247 -92 -247
-104 0 -4 18 -25 40 -46 l40 -39 93 32 c189 65 331 91 532 99 159 6 271 -4
410 -37 78 -18 259 -79 253 -85 -2 -2 -41 8 -88 21 -148 43 -266 57 -450 51
-187 -6 -296 -26 -485 -88 -95 -31 -374 -154 -394 -175 -2 -2 6 -15 19 -29
l23 -25 -129 0 c-161 0 -216 -14 -272 -71 -77 -76 -91 -183 -36 -276 32 -56
87 -92 162 -106 l60 -11 6 -47 c10 -75 76 -151 151 -176 l30 -10 5 -364 5
-364 32 -67 c17 -37 50 -87 73 -112 51 -55 148 -106 202 -106 l40 0 -4 -498
-3 -497 1275 0 1275 0 3 498 2 497 33 0 c49 0 149 54 197 106 23 25 56 75 73
112 l32 67 5 365 5 364 35 10 c73 21 150 124 150 201 0 17 10 22 61 32 76 14
130 50 163 106 55 93 41 200 -36 276 -56 57 -111 71 -272 71 l-129 0 21 23
c12 13 22 26 22 28 0 13 -287 142 -395 178 -185 62 -296 82 -485 88 -213 6
-338 -12 -555 -82 -55 -18 19 16 105 48 141 53 271 77 446 84 225 9 411 -19
637 -94 l108 -36 40 39 c21 21 39 41 39 45 0 11 -107 58 -204 91 -150 50 -273
70 -436 70 -291 1 -529 -72 -776 -237 -108 -72 -92 -45 26 44 146 110 339 192
535 227 103 18 357 24 426 11 34 -7 38 -5 63 34 15 22 26 42 24 44 -30 28
-338 42 -460 21z m-1193 -591 c152 -31 137 -33 -260 -33 l-390 0 75 19 c41 10
107 23 145 28 92 13 342 5 430 -14z m1399 -4 c49 -12 91 -23 94 -26 3 -3 -172
-5 -389 -4 -355 1 -390 2 -349 15 152 48 469 55 644 15z"/>
</g>
</svg>
